<svg viewBox="0 0 83 30" preserveAspectRatio="xMinYMin meet" width="83" height="30" xmlns="http://www.w3.org/2000/svg"><defs><filter x="-50%" y="-50%" width="200%" height="200%" filterUnits="objectBoundingBox" id="a"><feOffset in="SourceAlpha" result="shadowOffsetOuter1"/><feGaussianBlur stdDeviation="5.5" in="shadowOffsetOuter1" result="shadowBlurOuter1"/><feColorMatrix values="0 0 0 0 0 0 0 0 0 0 0 0 0 0 0 0 0 0 0.35 0" in="shadowBlurOuter1" result="shadowMatrixOuter1"/><feMerge><feMergeNode in="shadowMatrixOuter1"/><feMergeNode in="SourceGraphic"/></feMerge></filter></defs><g fill="none" fill-rule="evenodd"><path fill="#FFF" filter="url(#a)" d="M0 0h1280v80H0z" transform="translate(-40 -25)"/><path d="M0 27.568h11.745V30H0v-2.432z" fill="#366BAB"/><path d="M11.745 27.568h11.746V30H11.745v-2.432z" fill="#3F7CBF"/><path d="M23.49 27.568h11.746V30H23.49v-2.432z" fill="#49A5DD"/><path d="M35.236 27.568H46.98V30H35.236v-2.432z" fill="#4CB4E7"/><path d="M46.981 27.568h11.745V30H46.981v-2.432z" fill="#E8318A"/><path d="M58.726 27.568h11.746V30H58.726v-2.432z" fill="#EE7556"/><path d="M70.472 27.568h11.745V30H70.472v-2.432z" fill="#FFD500"/><path d="M15.026 3.9a23.151 23.151 0 0 0-.462 3.105l-.72 9.11h1.816l-.26 3.046h-5.247c.202-2.002.49-4.091.952-5.944h-.116c-1.24 4.36-3.46 6.242-5.881 6.242-2.51 0-4.325-1.822-4.325-5.823 0-6.75 3.92-10.393 8.679-10.393 1.527 0 2.883.268 4.093.657h1.47zM5.973 15.876c1.99 0 4.584-5.108 4.815-9.348-.462-.12-1.01-.24-1.47-.24-2.942 0-4.557 3.225-4.557 6.9 0 1.702.433 2.688 1.212 2.688zM27.843 18.443c-1.214.718-2.626 1.016-4.066 1.016-3.897 0-6.55-2.15-6.55-7.168 0-6.211 3.614-9.048 7.82-9.048 1.47 0 2.768.239 3.925.656l-.338 4.66h-3.05v-2.09c-.141-.12-.452-.18-.735-.18-1.636 0-3.727 1.374-3.727 5.435 0 2.926 1.412 4.33 3.643 4.33 1.13 0 2.287-.358 3.445-1.016l-.367 3.405M42.248 18.443c-1.392.658-3.024 1.016-4.89 1.016-4.39 0-6.82-2.06-6.82-6.6 0-5.882 3.202-9.616 8.39-9.616 3.44 0 4.921 1.643 4.921 3.763 0 3.016-2.815 5.764-9.22 6.242.09 2.18 1.69 2.807 3.41 2.807 1.69 0 3.32-.538 4.743-1.195l-.534 3.583zm-7.619-7.764c3.973-.538 5.13-1.822 5.13-3.135 0-.807-.593-1.254-1.513-1.254-2.282 0-3.439 2.03-3.617 4.39zM44.892 3.39h5.613c-.145 1.633-.318 3.559-.665 5.456h.115c.955-4.406 3.038-5.603 5.468-5.603.347 0 .607.03.954.146l-.52 3.706c-.202-.03-.405-.06-.607-.06-2.228 0-4.543 1.343-5.729 11.614h-3.819c.174-1.634.376-3.589.463-5.194l.434-7.09h-1.967l.26-2.976M59.77.3l3.828-.3-.29 3.648h4.032l-.26 3.048h-4.062l-.406 4.783c-.087 1.076-.232 2.45-.232 3.138 0 1.137.494 1.614 1.364 1.614.84 0 1.71-.388 2.668-.837l-.32 3.289a8.193 8.193 0 0 1-3.51.776c-2.725 0-4.03-1.434-4.03-4.125 0-.807.144-2.003.232-3.168l.407-5.47h-2.03l.26-3.048h2.059l.29-3.349M82.366 3.9a23.151 23.151 0 0 0-.462 3.105l-.72 9.11H83l-.26 3.046h-5.247c.202-2.002.49-4.091.952-5.944h-.115c-1.241 4.36-3.461 6.242-5.883 6.242-2.509 0-4.324-1.822-4.324-5.823 0-6.75 3.92-10.393 8.678-10.393 1.53 0 2.883.268 4.094.657h1.47zm-9.054 11.976c1.99 0 4.585-5.108 4.815-9.348-.462-.12-1.01-.24-1.47-.24-2.941 0-4.555 3.225-4.555 6.9 0 1.702.432 2.688 1.21 2.688z" fill="#00497B"/></g></svg>
