<svg xmlns="http://www.w3.org/2000/svg" width="68" height="96" viewBox="0 0 68 96">
    <g fill="none" fill-rule="evenodd">
        <path d="M-26-20H94v120H-26z"/>
        <path fill="#62BEEB" d="M34 4c5.831 0 11.136 2.285 15.077 6-5.992 5.715-14.667 7.563-22.614 4.67a2 2 0 1 0-1.367 3.759 26.235 26.235 0 0 0 8.983 1.594 25.668 25.668 0 0 0 17.65-7.029A21.878 21.878 0 0 1 56 26c0 12.131-9.869 22-22 22s-22-9.869-22-22S21.869 4 34 4m0 48C19.664 52 8 40.336 8 26S19.664 0 34 0c7.699 0 14.623 3.366 19.388 8.701.031.037.067.071.095.11C57.534 13.397 60 19.415 60 26c0 14.336-11.664 26-26 26zM0 90c0-18.748 15.252-34 34-34 18.748 0 34 15.252 34 34v4a2 2 0 0 1-4 0v-4c0-16.542-13.458-30-30-30-.385 0-.766.015-1.147.029C27.412 60.302 24 62.474 24 64c0 1.631 3.896 4 10 4 4.902 0 8.583-1.585 9.684-3.151a2.001 2.001 0 0 1 3.272 2.302C44.883 70.097 39.797 72 34 72c-7.981 0-14-3.439-14-8 0-.185.025-.364.045-.544C10.514 68.486 4 78.494 4 90v4a2 2 0 0 1-4 0v-4zm29.34-47.619c1.55.417 3.124.624 4.688.624 3.116 0 6.195-.819 8.972-2.423a2 2 0 0 0-2-3.464 13.875 13.875 0 0 1-10.62 1.401 2 2 0 0 0-1.04 3.862z"/>
    </g>
</svg>
