<svg xmlns="http://www.w3.org/2000/svg" width="30" height="39"><g fill="#515151" fill-rule="evenodd"><path d="M3 36V3h15v7.5a1.5 1.5 0 0 0 1.5 1.5H27v24H3zM21 5.1L24.9 9H21V5.1zm9 5.1V10h-.1a1.5 1.5 0 0 0-.1-.3 1.6 1.6 0 0 0-.2-.3l-9-9a1.6 1.6 0 0 0-.3-.1A1.5 1.5 0 0 0 20 0H20h-.2a1.5 1.5 0 0 0-.3-.1h-18A1.5 1.5 0 0 0 0 1.5v36A1.5 1.5 0 0 0 1.5 39h27a1.5 1.5 0 0 0 1.5-1.5v-27-.3z"/><path d="M16 15.4a1.5 1.5 0 0 0-.4-.3 1.5 1.5 0 0 0-.6-.1l-.5.1a1.5 1.5 0 0 0-.6.3l-4.2 4.3a1.5 1.5 0 1 0 2.1 2.1l1.7-1.7v8.4a1.5 1.5 0 0 0 3 0v-8.4l1.7 1.7a1.5 1.5 0 0 0 2.1 0 1.5 1.5 0 0 0 0-2.1l-4.2-4.3z"/></g></svg>