<svg xmlns="http://www.w3.org/2000/svg" width="88" height="92"><g fill="none" fill-rule="evenodd"><path fill="#62BEEB" d="M68 32a10 10 0 1 0 9 5.7 14 14 0 0 1-13.8 2.5 2 2 0 0 1 1.4-3.8 10 10 0 0 0 10-1.9A10 10 0 0 0 68 32zM54 42a14 14 0 0 1 25-8.6 14 14 0 0 1 3 8.6 14 14 0 0 1-28 0zm14 16c11 0 20 9 20 20v12a2 2 0 0 1-4 0V78a16 16 0 0 0-32 0v12a2 2 0 0 1-4 0V78c0-11 9-20 20-20zM42 88a2 2 0 0 1 0 4H2a2 2 0 0 1-2-2V43a2 2 0 0 1 2-2h18V12a2 2 0 0 1 1.5-2l42-10A2 2 0 0 1 66 2v20.7a2 2 0 0 1-4 0V4.5l-38 9V21h14a2 2 0 0 1 0 4H24v6h14a2 2 0 0 1 0 4H24v6h14a2 2 0 0 1 0 4H28v6h10a2 2 0 0 1 0 4H28v6h10a2 2 0 0 1 0 4H28v23h14zm-30 0h4v-4h-4v4zM4 45v43h4v-6a2 2 0 0 1 2-2h8a2 2 0 0 1 2 2v6h4V45H4zm4.9 7.7l-.3-.3a2 2 0 0 1-.4-2.2l.1-.3.3-.3.3-.3a2.2 2.2 0 0 1 .7-.3 2 2 0 0 1 2.4 1.6v.4c0 .5-.2 1-.6 1.4a2 2 0 0 1-1.8.6l-.4-.1c-.2 0-.2-.2-.3-.2zm8 0l-.3-.3a2 2 0 0 1-.4-2.2l.1-.3.3-.3.3-.3a2.2 2.2 0 0 1 .7-.3 2 2 0 0 1 2.4 2 2 2 0 0 1-3.1 1.7zM10 61a2 2 0 0 1-1.4-.6 2 2 0 0 1 0-2.8l.3-.3a2.2 2.2 0 0 1 .7-.3 2 2 0 0 1 2.4 2v.4l-.1.4-.2.3-.3.3a2 2 0 0 1-1.4.6zm6.9-.3l-.3-.3A2 2 0 0 1 16 59v-.4a1.7 1.7 0 0 1 .3-.7l.3-.3.3-.3a2.2 2.2 0 0 1 .7-.3 2 2 0 0 1 2.4 2 2 2 0 0 1-.9 1.7 2.3 2.3 0 0 1-.7.3 2.6 2.6 0 0 1-.8 0 2.2 2.2 0 0 1-.7-.3zm-8.7 7l-.2-.3V67c0-.5.2-1 .6-1.4l.3-.3a2.2 2.2 0 0 1 .7-.3 2 2 0 0 1 1.8.6 2 2 0 0 1 .6 1.8l-.1.4c0 .2-.2.2-.2.3l-.3.3a2 2 0 0 1-2.8 0l-.3-.3-.1-.3zm8 0l-.2-.3V67c0-.5.2-1 .6-1.4a2 2 0 0 1 2.8 0 2 2 0 0 1 .6 1.8l-.1.4c0 .2-.2.2-.2.3l-.3.3a2 2 0 0 1-2.8 0l-.3-.3-.1-.3zm-7.3 9l-.3-.3a2 2 0 0 1 0-2.8l.3-.3a2.2 2.2 0 0 1 .7-.3 2 2 0 0 1 2.3 1.2v.4l.1.4c0 .5-.2 1-.6 1.4a2 2 0 0 1-1.8.6l-.4-.1c-.2 0-.2-.2-.3-.2zm9.1.3a2 2 0 0 1-1.4-.6 2 2 0 0 1 0-2.8 2 2 0 0 1 2.8 0c.4.4.6.9.6 1.4 0 .5-.2 1-.6 1.4a2 2 0 0 1-1.4.6z"/><path d="M-16-24h120V96H-16z"/></g></svg>